# 2D Square with normals and texture coordinates

# Vertex positions (forms a square from -0.5 to 0.5)
v -0.5 -0.5 0.0
v 0.5 -0.5 0.0
v 0.5 0.5 0.0
v -0.5 0.5 0.0

# Texture coordinates (UV mapping)
vt 0.0 0.0
vt 1.0 0.0
vt 1.0 1.0
vt 0.0 1.0

# Vertex normals (pointing toward viewer in +Z direction)
vn 0.0 0.0 1.0
vn 0.0 0.0 1.0
vn 0.0 0.0 1.0
vn 0.0 0.0 1.0

# Face definitions (two triangles forming a square)
# First triangle (bottom-left, bottom-right, top-right)
f 1/1/1 2/2/2 3/3/3
# Second triangle (bottom-left, top-right, top-left)
f 1/1/1 3/3/3 4/4/4